<?xml version="1.0" encoding="UTF-8" standalone="no"?><!DOCTYPE svg PUBLIC "-//W3C//DTD SVG 1.1//EN" "http://www.w3.org/Graphics/SVG/1.1/DTD/svg11.dtd"><svg width="100%" height="100%" viewBox="0 0 284 284" version="1.1" xmlns="http://www.w3.org/2000/svg" xmlns:xlink="http://www.w3.org/1999/xlink" xml:space="preserve" xmlns:serif="http://www.serif.com/" style="fill-rule:evenodd;clip-rule:evenodd;stroke-linejoin:round;stroke-miterlimit:2;"><path d="M249.374,116.651l34.091,25.165l0,141.649l-180.687,0l-26.422,-38.969c1.344,0.522 2.859,0.505 4.214,-0.085l55.486,-24.177c1.791,-0.78 3.723,-1.183 5.676,-1.183c1.954,0 3.886,0.403 5.677,1.183l55.485,24.177c1.799,0.783 3.877,0.556 5.464,-0.597c1.587,-1.153 2.445,-3.059 2.255,-5.012l-5.847,-60.24c-0.189,-1.945 0.026,-3.907 0.629,-5.765c0.604,-1.857 1.584,-3.571 2.879,-5.033l40.14,-45.299c1.3,-1.468 1.727,-3.515 1.121,-5.38c-0.048,-0.148 -0.102,-0.292 -0.161,-0.434Z" style="fill:url(#_Linear1);"/><path d="M42.832,131.247l32.358,36.517c1.296,1.462 2.276,3.176 2.879,5.033c0.604,1.858 0.818,3.82 0.629,5.765l-0.539,5.558l-35.327,-52.873Z" style="fill:url(#_Linear2);"/><path d="M249.806,102.839l-10.616,9.166l-52.824,-11.668c-1.908,-0.422 -3.708,-1.232 -5.288,-2.38c-1.58,-1.148 -2.907,-2.61 -3.897,-4.294l-30.588,-52.02l103.213,61.196Z" style="fill:url(#_Linear3);"/><path d="M136.962,41.491c0.994,-1.691 2.809,-2.729 4.77,-2.729c1.962,0 3.777,1.038 4.771,2.729l30.678,52.172c0.99,1.684 2.317,3.146 3.897,4.294c1.58,1.148 3.38,1.958 5.288,2.38l59.099,13.054c1.915,0.423 3.464,1.828 4.07,3.694c0.606,1.865 0.179,3.912 -1.121,5.38l-40.14,45.299c-1.295,1.462 -2.275,3.176 -2.879,5.033c-0.603,1.858 -0.818,3.82 -0.629,5.765l5.847,60.24c0.19,1.953 -0.668,3.859 -2.255,5.012c-1.587,1.153 -3.665,1.38 -5.464,0.597l-55.485,-24.177c-1.791,-0.78 -3.723,-1.183 -5.677,-1.183c-1.953,0 -3.885,0.403 -5.676,1.183l-55.486,24.177c-1.798,0.783 -3.877,0.556 -5.463,-0.597c-1.587,-1.153 -2.445,-3.059 -2.256,-5.012l5.847,-60.24c0.189,-1.945 -0.025,-3.907 -0.629,-5.765c-0.603,-1.857 -1.583,-3.571 -2.879,-5.033l-40.139,-45.299c-1.301,-1.468 -1.727,-3.515 -1.121,-5.38c0.606,-1.866 2.154,-3.271 4.069,-3.694l59.1,-13.054c1.907,-0.422 3.707,-1.232 5.287,-2.38c1.581,-1.148 2.907,-2.61 3.897,-4.294l30.679,-52.172Z" style="fill:#ffd800;"/><defs><linearGradient id="_Linear1" x1="0" y1="0" x2="1" y2="0" gradientUnits="userSpaceOnUse" gradientTransform="matrix(-92.2349,-163.747,163.747,-92.2349,207.956,244.871)"><stop offset="0" style="stop-color:#fff;stop-opacity:0.25"/><stop offset="1" style="stop-color:#c0c0c0;stop-opacity:0.25"/></linearGradient><linearGradient id="_Linear2" x1="0" y1="0" x2="1" y2="0" gradientUnits="userSpaceOnUse" gradientTransform="matrix(-67.2384,-87.7331,87.7331,-67.2384,157.642,166.952)"><stop offset="0" style="stop-color:#fefefe;stop-opacity:0.1"/><stop offset="1" style="stop-color:#bfbfbf;stop-opacity:0.1"/></linearGradient><linearGradient id="_Linear3" x1="0" y1="0" x2="1" y2="0" gradientUnits="userSpaceOnUse" gradientTransform="matrix(-67.2384,-87.7331,87.7331,-67.2384,157.642,166.952)"><stop offset="0" style="stop-color:#fefefe;stop-opacity:0.1"/><stop offset="1" style="stop-color:#bfbfbf;stop-opacity:0.1"/></linearGradient></defs></svg>