<?xml version="1.0" encoding="UTF-8" standalone="no"?><!DOCTYPE svg PUBLIC "-//W3C//DTD SVG 1.1//EN" "http://www.w3.org/Graphics/SVG/1.1/DTD/svg11.dtd"><svg width="100%" height="100%" viewBox="0 0 284 284" version="1.1" xmlns="http://www.w3.org/2000/svg" xmlns:xlink="http://www.w3.org/1999/xlink" xml:space="preserve" xmlns:serif="http://www.serif.com/" style="fill-rule:evenodd;clip-rule:evenodd;stroke-linejoin:round;stroke-miterlimit:2;"><path d="M136.962,41.491c0.994,-1.691 2.809,-2.729 4.77,-2.729c1.962,0 3.777,1.038 4.771,2.729l30.678,52.172c0.99,1.684 2.317,3.146 3.897,4.294c1.58,1.148 3.38,1.958 5.288,2.38l59.099,13.054c1.915,0.423 3.464,1.828 4.07,3.694c0.606,1.865 0.179,3.912 -1.121,5.38l-40.14,45.299c-1.295,1.462 -2.275,3.176 -2.879,5.033c-0.603,1.858 -0.818,3.82 -0.629,5.765l5.847,60.24c0.19,1.953 -0.668,3.859 -2.255,5.012c-1.587,1.153 -3.665,1.38 -5.464,0.597l-55.485,-24.177c-1.791,-0.78 -3.723,-1.183 -5.677,-1.183c-1.953,0 -3.885,0.403 -5.676,1.183l-55.486,24.177c-1.798,0.783 -3.877,0.556 -5.463,-0.597c-1.587,-1.153 -2.445,-3.059 -2.256,-5.012l5.847,-60.24c0.189,-1.945 -0.025,-3.907 -0.629,-5.765c-0.603,-1.857 -1.583,-3.571 -2.879,-5.033l-40.139,-45.299c-1.301,-1.468 -1.727,-3.515 -1.121,-5.38c0.606,-1.866 2.154,-3.271 4.069,-3.694l59.1,-13.054c1.907,-0.422 3.707,-1.232 5.287,-2.38c1.581,-1.148 2.907,-2.61 3.897,-4.294l30.679,-52.172Z" style="fill:#808080;"/></svg>